<svg id="heart" xmlns="http://www.w3.org/2000/svg" width="11.873" height="10.62" viewBox="0 0 11.873 10.62">
  <path id="Path_6" data-name="Path 6" d="M10.914,29.487a3.248,3.248,0,0,0-4.649,0l-.325.33-.33-.335a3.245,3.245,0,0,0-4.649-.005,3.383,3.383,0,0,0,.005,4.73l4.727,4.809a.333.333,0,0,0,.478,0l4.737-4.8a3.392,3.392,0,0,0,.005-4.733Zm-.483,4.243-4.5,4.558L1.445,33.723a2.685,2.685,0,0,1,0-3.752,2.575,2.575,0,0,1,3.687,0l.569.579a.335.335,0,0,0,.481,0l.564-.574a2.575,2.575,0,0,1,3.687,0,2.691,2.691,0,0,1,0,3.754Z" transform="translate(0 -28.501)" fill="#c4c4c4"/>
</svg>
