<svg id="shopping-bag" xmlns="http://www.w3.org/2000/svg" width="8.846" height="10.62" viewBox="0 0 8.846 10.62">
  <g id="Group_4" data-name="Group 4" transform="translate(3.174)">
    <g id="Group_3" data-name="Group 3">
      <path id="Path_8" data-name="Path 8" d="M79.331,1.312A1.519,1.519,0,0,0,77.842,0a1.5,1.5,0,0,0-1.215.628.182.182,0,0,0,.038.252.175.175,0,0,0,.247-.039A1.149,1.149,0,0,1,77.842.36a1.161,1.161,0,0,1,1.138,1,.178.178,0,0,0,.175.155l.025,0A.18.18,0,0,0,79.331,1.312Z" transform="translate(-76.593)" fill="#c4c4c4"/>
    </g>
  </g>
  <g id="Group_6" data-name="Group 6" transform="translate(0.354 2.34)">
    <g id="Group_5" data-name="Group 5">
      <path id="Path_9" data-name="Path 9" d="M30.3,45.359l-.531-.9a.176.176,0,0,0-.152-.087h-.509a.18.18,0,0,0,0,.36h.408l.318.54H22.674l.318-.54h.187a.18.18,0,0,0,0-.36h-.288a.176.176,0,0,0-.152.087l-.531.9a.183.183,0,0,0,0,.181.176.176,0,0,0,.154.091h7.784a.176.176,0,0,0,.154-.091A.183.183,0,0,0,30.3,45.359Z" transform="translate(-22.185 -44.372)" fill="#c4c4c4"/>
    </g>
  </g>
  <g id="Group_8" data-name="Group 8" transform="translate(4.664 1.009)">
    <g id="Group_7" data-name="Group 7">
      <path id="Path_10" data-name="Path 10" d="M108.264,19.785a.177.177,0,0,0-.11-.08l-2.412-.574a.175.175,0,0,0-.134.022.18.18,0,0,0-.079.112l-.182.791a.18.18,0,0,0,.132.216.177.177,0,0,0,.213-.134l.142-.616,2.067.492-.325,1.413a.18.18,0,0,0,.132.216.176.176,0,0,0,.213-.134l.365-1.588A.182.182,0,0,0,108.264,19.785Z" transform="translate(-105.343 -19.126)" fill="#c4c4c4"/>
    </g>
  </g>
  <g id="Group_10" data-name="Group 10" transform="translate(1.044 0.547)">
    <g id="Group_9" data-name="Group 9">
      <path id="Path_11" data-name="Path 11" d="M38.967,11.92l-.161-1.387a.181.181,0,0,0-.066-.12.175.175,0,0,0-.13-.037l-2.959.356a.179.179,0,0,0-.155.2l.269,2.314a.178.178,0,0,0,.176.159h.021a.179.179,0,0,0,.155-.2l-.248-2.135,2.608-.314.14,1.208a.177.177,0,1,0,.351-.042Z" transform="translate(-35.494 -10.374)" fill="#c4c4c4"/>
    </g>
  </g>
  <g id="Group_12" data-name="Group 12" transform="translate(2.365 1.728)">
    <g id="Group_11" data-name="Group 11">
      <path id="Path_12" data-name="Path 12" d="M64.547,34.393,64.2,32.907a.18.18,0,0,0-.08-.111.175.175,0,0,0-.134-.021l-2.85.7a.18.18,0,0,0-.131.217l.176.743a.177.177,0,0,0,.213.133.18.18,0,0,0,.131-.217l-.134-.568,2.506-.613.31,1.311a.178.178,0,0,0,.172.138.174.174,0,0,0,.042-.005A.18.18,0,0,0,64.547,34.393Z" transform="translate(-60.997 -32.769)" fill="#c4c4c4"/>
    </g>
  </g>
  <g id="Group_14" data-name="Group 14" transform="translate(0 3.24)">
    <g id="Group_13" data-name="Group 13">
      <path id="Path_13" data-name="Path 13" d="M23.85,61.612a.178.178,0,0,0-.177-.171H15.889a.178.178,0,0,0-.177.171l-.354,7.02a.182.182,0,0,0,.048.133.176.176,0,0,0,.128.056h8.492a.176.176,0,0,0,.128-.056.182.182,0,0,0,.048-.133Zm-8.129,6.849.336-6.66h7.448l.336,6.66Z" transform="translate(-15.359 -61.441)" fill="#c4c4c4"/>
    </g>
  </g>
  <g id="Group_16" data-name="Group 16" transform="translate(5.219 3.96)">
    <g id="Group_15" data-name="Group 15">
      <path id="Path_14" data-name="Path 14" d="M116.583,75.093a.54.54,0,1,0,.531.54A.536.536,0,0,0,116.583,75.093Zm0,.72a.18.18,0,1,1,.177-.18A.179.179,0,0,1,116.583,75.813Z" transform="translate(-116.052 -75.093)" fill="#c4c4c4"/>
    </g>
  </g>
  <g id="Group_18" data-name="Group 18" transform="translate(2.565 3.96)">
    <g id="Group_17" data-name="Group 17">
      <path id="Path_15" data-name="Path 15" d="M65.383,75.093a.54.54,0,1,0,.531.54A.536.536,0,0,0,65.383,75.093Zm0,.72a.18.18,0,1,1,.177-.18A.179.179,0,0,1,65.383,75.813Z" transform="translate(-64.852 -75.093)" fill="#c4c4c4"/>
    </g>
  </g>
  <g id="Group_20" data-name="Group 20" transform="translate(2.919 4.5)">
    <g id="Group_19" data-name="Group 19">
      <path id="Path_16" data-name="Path 16" d="M74.51,85.333H74.5a.179.179,0,0,0-.177.18.181.181,0,0,0,.014.069V86.5a1.15,1.15,0,1,1-2.3,0v-.99a.177.177,0,1,0-.354,0v.99a1.5,1.5,0,1,0,3.008,0v-.99A.179.179,0,0,0,74.51,85.333Z" transform="translate(-71.679 -85.333)" fill="#c4c4c4"/>
    </g>
  </g>
</svg>
